<?xml version="1.0" standalone="no"?>
<!DOCTYPE svg PUBLIC "-//W3C//DTD SVG 20010904//EN"
 "http://www.w3.org/TR/2001/REC-SVG-20010904/DTD/svg10.dtd">
<svg version="1.0" xmlns="http://www.w3.org/2000/svg"
 width="200.000000pt" height="200.000000pt" viewBox="0 0 200.000000 200.000000"
 preserveAspectRatio="xMidYMid meet">
<metadata>
Created by potrace 1.11, written by Peter Selinger 2001-2013
</metadata>
<g transform="translate(0.000000,200.000000) scale(0.100000,-0.100000)"
fill="#000000" stroke="none">
<path d="M766 1654 l-217 -218 213 -213 c117 -117 216 -213 221 -213 4 0 104
96 222 213 l214 214 -218 217 -218 217 -217 -217z"/>
<path d="M244 1136 c-194 -193 -215 -218 -203 -233 8 -9 105 -107 216 -218
l202 -202 213 214 c117 117 215 215 217 218 2 2 -94 101 -213 220 l-216 217
-216 -216z"/>
<path d="M1282 1132 l-213 -216 213 -213 c117 -117 217 -213 221 -213 12 0
427 415 427 426 0 10 -422 435 -430 433 -3 -1 -101 -99 -218 -217z"/>
<path d="M762 616 l-214 -212 431 0 c236 0 429 1 428 3 -34 38 -421 423 -426
422 -3 0 -102 -96 -219 -213z"/>
</g>
</svg>
